# xmcd
#
# Track frame offsets: 
#        150
#        21503
#        36758
#        51773
#        66076
#        81601
#        96864
#        111579
#        133989
#        151862
#        169480
#        183205
#        196488
#        214016
#
# Disc length: 3067 seconds
#
# Revision: 0
# Processed by: cddbd v1.5.2PL0 Copyright (c) Steve Scherf et al.
# Submitted via: ExactAudioCopyFreeDBPlugin 1.0
#
DISCID=d10bf90e
DTITLE=Alison Krauss - Essential Alison Krauss
DYEAR=2009
DGENRE=Country
TTITLE0=Simple Love
TTITLE1=Sister Rosetta Goes Before Us
TTITLE2=Let Me Touch You For Awhile
TTITLE3=The Lucky One
TTITLE4=So Long, So Wrong
TTITLE5=Empty Hearts
TTITLE6=Every Time You Say Goodbye
TTITLE7=Wish I Still Had You [Live]
TTITLE8=Broadway
TTITLE9=Baby, Now That I've Found You [Live]
TTITLE10=Sawing Of The Strings
TTITLE11=Restless
TTITLE12=When You Say Nothing At All [Live]
TTITLE13=A Living Prayer
EXTD=
EXTT0=
EXTT1=
EXTT2=
EXTT3=
EXTT4=
EXTT5=
EXTT6=
EXTT7=
EXTT8=
EXTT9=
EXTT10=
EXTT11=
EXTT12=
EXTT13=
PLAYORDER=
